<?xml version="1.0" encoding="utf-8"?>
<!-- Generator: Adobe Illustrator 24.0.2, SVG Export Plug-In . SVG Version: 6.00 Build 0)  -->
<svg version="1.1" id="Layer_1" xmlns="http://www.w3.org/2000/svg" xmlns:xlink="http://www.w3.org/1999/xlink" x="0px" y="0px"
	 viewBox="0 0 200 40" style="enable-background:new 0 0 200 40;" xml:space="preserve">
<style type="text/css">
	.st0{fill:#FFFFFF;}
</style>
<g>
	<polygon class="st0" points="192.36,39.02 180,30.04 167.64,39.02 172.36,24.49 160,15.51 147.64,24.49 152.36,39.02 140,30.04 
		127.64,39.02 132.36,24.49 120,15.51 107.64,24.49 112.36,39.02 100,30.04 87.64,39.02 92.36,24.49 80,15.51 67.64,24.49 
		72.36,39.02 60,30.04 47.64,39.02 52.36,24.49 40,15.51 27.64,24.49 32.36,39.02 20,30.04 7.64,39.02 12.36,24.49 0,15.51 0,40 
		200,40 200,15.51 187.64,24.49 	"/>
	<polygon class="st0" points="0,0 0,15.51 15.28,15.51 20,0.98 24.72,15.51 40,15.51 55.28,15.51 60,0.98 64.72,15.51 80,15.51 
		95.28,15.51 100,0.98 104.72,15.51 120,15.51 135.28,15.51 140,0.98 144.72,15.51 160,15.51 175.28,15.51 180,0.98 184.72,15.51 
		200,15.51 200,0 	"/>
</g>
</svg>
