<?xml version="1.0" encoding="utf-8"?>
<!-- Generator: Adobe Illustrator 25.2.3, SVG Export Plug-In . SVG Version: 6.00 Build 0)  -->
<svg version="1.1" id="Layer_1" xmlns="http://www.w3.org/2000/svg" xmlns:xlink="http://www.w3.org/1999/xlink" x="0px" y="0px"
	 viewBox="0 0 252 27" style="enable-background:new 0 0 252 27;" xml:space="preserve">
<g>
	<path d="M30.6,12.2c0,1.8-0.4,3.4-1.1,4.9c-0.7,1.5-1.7,2.8-3,3.9c-1.3,1.1-2.8,2-4.6,2.6c-1.8,0.6-3.7,0.9-5.8,0.9H0v-15h7.5v8.8
		h8.6c1,0,2-0.1,2.9-0.4c0.9-0.3,1.6-0.7,2.2-1.2s1.1-1.1,1.5-1.8c0.4-0.7,0.5-1.5,0.5-2.4c0-0.8-0.2-1.6-0.5-2.3
		c-0.4-0.7-0.9-1.3-1.5-1.9c-0.6-0.5-1.4-0.9-2.3-1.2c-0.9-0.3-1.8-0.4-2.8-0.4H0l4.8-6.3h11.4c2.1,0,4.1,0.3,5.8,0.9
		c1.8,0.6,3.3,1.4,4.6,2.4c1.3,1,2.3,2.3,3,3.7C30.3,8.9,30.6,10.5,30.6,12.2z"/>
	<path d="M62.4,18.3l-4.8,6.2H34.4V0.4h27.9l-4.8,6.3H41.9v2.9H61L56.7,15H41.9v3.3H62.4z"/>
	<path d="M87.3,10c3,0,5.2,0.5,6.7,1.6c1.5,1.1,2.3,2.7,2.3,5c0,1.2-0.2,2.3-0.6,3.3c-0.4,1-1,1.8-1.8,2.5s-1.9,1.2-3.2,1.5
		c-1.3,0.4-2.9,0.5-4.7,0.5H63.5l4.8-6.2h18.2c0.9,0,1.5-0.1,1.9-0.4c0.4-0.3,0.6-0.7,0.6-1.4c0-0.6-0.2-1.1-0.6-1.3
		c-0.4-0.3-1.1-0.4-1.9-0.4H73.4c-1.6,0-2.9-0.2-4-0.5c-1.1-0.3-2.1-0.8-2.8-1.4c-0.7-0.6-1.3-1.3-1.7-2.2c-0.4-0.9-0.5-1.8-0.5-2.8
		c0-1.1,0.2-2.2,0.6-3.1c0.4-0.9,1-1.7,1.8-2.4c0.8-0.6,1.9-1.2,3.2-1.5c1.3-0.4,2.9-0.5,4.7-0.5h20.9l-4.8,6.3H74.2
		c-0.9,0-1.5,0.1-1.9,0.4c-0.4,0.2-0.6,0.7-0.6,1.3c0,0.6,0.2,1.1,0.6,1.3s1.1,0.4,1.9,0.4H87.3z"/>
	<path d="M107.2,24.5h-7.5V0.4h7.5V24.5z"/>
	<path d="M126.7,9.4h15.4v15h-16.5c-2.1,0-4-0.3-5.8-0.9c-1.8-0.6-3.3-1.5-4.6-2.6s-2.3-2.4-3-3.9c-0.7-1.5-1.1-3.1-1.1-4.9
		s0.4-3.4,1.1-4.8c0.7-1.5,1.7-2.7,3-3.7s2.8-1.8,4.6-2.4s3.7-0.8,5.8-0.8h17.2L138,6.7h-12.4c-1,0-1.9,0.1-2.8,0.4
		c-0.9,0.3-1.6,0.7-2.2,1.2c-0.6,0.5-1.1,1.1-1.5,1.9c-0.4,0.7-0.5,1.5-0.5,2.4c0,0.9,0.2,1.7,0.5,2.4c0.3,0.7,0.8,1.3,1.5,1.8
		s1.4,0.9,2.2,1.2c0.9,0.3,1.8,0.4,2.8,0.4h9.1v-3.5h-12.5L126.7,9.4z"/>
	<path d="M170.8,24.9c-0.5,0-1-0.1-1.4-0.2c-0.5-0.2-1-0.5-1.6-1.1L153,10.3v14.1h-6.8v-20c0-0.8,0.1-1.5,0.3-2.1
		c0.2-0.6,0.5-1,0.9-1.4c0.4-0.4,0.8-0.6,1.3-0.8c0.5-0.2,1-0.3,1.5-0.3c0.5,0,0.9,0.1,1.4,0.2c0.5,0.2,1,0.5,1.6,1.1l14.8,13.2V0.4
		h6.8v19.9c0,0.8-0.1,1.5-0.3,2.1c-0.2,0.6-0.5,1.1-0.9,1.4c-0.4,0.4-0.8,0.6-1.3,0.8S171.3,24.9,170.8,24.9z"/>
	<path d="M207.3,18.3l-4.8,6.2h-23.2V0.4h27.9l-4.8,6.3h-15.6v2.9h19.1l-4.3,5.5h-14.8v3.3H207.3z"/>
	<path d="M244,24.5h-10l-5.4-6.4h-11.4v6.4h-7.5V12.2h21c1.2,0,2.1-0.2,2.9-0.7c0.8-0.5,1.2-1.1,1.2-2c0-0.9-0.4-1.6-1.1-2.1
		c-0.7-0.5-1.7-0.7-3-0.7h-21l4.9-6.3h15.5c1.4,0,2.8,0.1,4.2,0.4c1.5,0.3,2.8,0.7,4,1.4c1.2,0.6,2.2,1.5,3,2.6
		c0.8,1.1,1.2,2.5,1.2,4.2c0,0.9-0.1,1.8-0.4,2.7c-0.3,0.8-0.7,1.6-1.2,2.3s-1.2,1.2-2,1.7c-0.8,0.5-1.7,0.8-2.6,1
		c0.4,0.3,0.9,0.7,1.4,1.2c0.5,0.5,1.2,1.1,2,2L244,24.5z"/>
</g>
</svg>
